<?xml version="1.0" encoding="UTF-8"?>
<svg id="Layer_1" xmlns="http://www.w3.org/2000/svg" version="1.1" viewBox="0 0 841.89 595.28">
  <!-- Generator: Adobe Illustrator 29.4.0, SVG Export Plug-In . SVG Version: 2.1.0 Build 152)  -->
  <defs>
    <style>
      .st0 {
        fill: #231f20;
      }

      .st1 {
        fill: #fff;
      }
    </style>
  </defs>
  <rect class="st0" x="-10.76" y="-8.18" width="864" height="617.86"/>
  <g>
    <g>
      <path class="st1" d="M379.48,290.39v-42.95h15.8v2.28h-12.74v17.28h10.99v2.23h-10.99v21.15h-3.06Z"/>
      <path class="st1" d="M412.04,290.97c-2.98,0-5.31-.47-6.97-1.41-1.66-.94-2.82-2.21-3.48-3.82-.66-1.61-.99-3.42-.99-5.43v-32.87h3.06v32.92c0,1.56.24,2.96.71,4.21.47,1.25,1.32,2.24,2.55,2.94,1.23.71,2.94,1.06,5.13,1.06,2.08,0,3.73-.36,4.96-1.09,1.23-.72,2.11-1.71,2.63-2.94.53-1.24.79-2.63.79-4.19v-32.92h3v32.87c0,2.01-.36,3.83-1.08,5.43-.72,1.61-1.9,2.88-3.54,3.82-1.64.94-3.9,1.41-6.77,1.41Z"/>
      <path class="st1" d="M431.36,290.39v-42.95h3.06v40.67h13.88v2.28h-16.93Z"/>
      <path class="st1" d="M452.48,290.39v-42.95h3.06v40.67h13.88v2.28h-16.93Z"/>
      <path class="st1" d="M493.49,290.92c-2.42,0-4.41-.46-5.97-1.38-1.57-.92-2.76-2.21-3.57-3.87-.81-1.66-1.31-3.62-1.5-5.88l2.66-.8c.26,1.87.67,3.54,1.22,4.98.55,1.45,1.39,2.57,2.52,3.37,1.13.8,2.7,1.19,4.7,1.19,2.27,0,4.05-.53,5.35-1.59s1.95-2.83,1.95-5.3c0-1.87-.52-3.56-1.56-5.06-1.04-1.5-2.5-3.12-4.39-4.85l-8.38-7.79c-1.4-1.34-2.42-2.69-3.06-4.03-.64-1.34-.96-2.72-.96-4.14,0-2.83.93-5,2.8-6.52,1.87-1.52,4.29-2.28,7.28-2.28,1.55,0,2.94.19,4.19.56,1.25.37,2.33.97,3.26,1.8.92.83,1.65,1.94,2.18,3.31.53,1.38.87,3.07,1.02,5.09l-2.61.58c-.15-2.01-.51-3.69-1.08-5.04-.57-1.34-1.4-2.34-2.49-3-1.1-.65-2.57-.98-4.42-.98-2.08,0-3.81.5-5.21,1.48-1.4.99-2.1,2.58-2.1,4.77,0,1.1.24,2.16.71,3.18.47,1.03,1.35,2.14,2.63,3.34l8.27,7.63c1.85,1.7,3.45,3.51,4.79,5.43,1.34,1.93,2.01,4.04,2.01,6.34,0,2.16-.43,3.93-1.3,5.33-.87,1.4-2.08,2.43-3.62,3.1-1.55.67-3.32,1.01-5.32,1.01Z"/>
      <path class="st1" d="M520.1,290.97c-3.02,0-5.33-.58-6.94-1.75-1.61-1.17-2.71-2.73-3.31-4.69-.6-1.96-.91-4.13-.91-6.5v-18.24c0-2.47.32-4.67.96-6.6.64-1.93,1.77-3.45,3.4-4.56,1.62-1.11,3.89-1.67,6.8-1.67,2.68,0,4.78.5,6.29,1.49,1.51.99,2.59,2.39,3.23,4.21.64,1.82.96,3.95.96,6.39v2.17h-2.95v-2.17c0-2.05-.21-3.79-.62-5.22-.42-1.43-1.17-2.54-2.27-3.31-1.1-.78-2.64-1.17-4.64-1.17-2.19,0-3.87.42-5.04,1.27-1.17.85-1.96,2.03-2.38,3.55-.42,1.52-.62,3.29-.62,5.3v18.98c0,2.12.23,3.93.68,5.43.45,1.5,1.26,2.66,2.44,3.47,1.17.81,2.81,1.22,4.93,1.22s3.61-.41,4.7-1.22c1.09-.81,1.84-1.95,2.24-3.42s.59-3.17.59-5.12v-2.6h2.95v2.12c0,2.44-.3,4.61-.91,6.52-.6,1.91-1.66,3.4-3.17,4.48-1.51,1.08-3.64,1.62-6.4,1.62Z"/>
      <path class="st1" d="M547.97,290.97c-2.98,0-5.29-.56-6.94-1.67s-2.79-2.63-3.43-4.56c-.64-1.93-.96-4.11-.96-6.55v-18.77c0-2.44.34-4.59,1.02-6.47.68-1.87,1.84-3.34,3.48-4.4s3.92-1.59,6.82-1.59,5.18.53,6.83,1.59,2.8,2.53,3.48,4.4c.68,1.87,1.02,4.03,1.02,6.47v18.82c0,2.44-.32,4.61-.96,6.52-.64,1.91-1.78,3.42-3.43,4.53s-3.96,1.67-6.94,1.67ZM547.97,288.59c2.19,0,3.88-.41,5.07-1.22,1.19-.81,2.01-1.95,2.46-3.42s.68-3.17.68-5.12v-19.83c0-1.94-.23-3.64-.68-5.09s-1.27-2.57-2.44-3.37c-1.17-.79-2.87-1.19-5.1-1.19s-3.88.4-5.07,1.19-2.01,1.92-2.46,3.37-.68,3.15-.68,5.09v19.83c0,1.94.23,3.65.68,5.12s1.27,2.61,2.46,3.42c1.19.81,2.88,1.22,5.07,1.22Z"/>
      <path class="st1" d="M566.83,290.39v-42.95h10.76c2.76,0,4.91.49,6.46,1.46,1.55.97,2.63,2.29,3.26,3.95s.93,3.55.93,5.67c0,1.91-.31,3.73-.93,5.46-.62,1.73-1.71,3.15-3.26,4.24-1.55,1.1-3.68,1.64-6.4,1.64h-7.76v20.52h-3.06ZM569.89,267.64h7.08c1.85,0,3.37-.3,4.56-.9,1.19-.6,2.08-1.56,2.66-2.89.58-1.33.88-3.1.88-5.33s-.26-4.09-.79-5.38c-.53-1.29-1.38-2.19-2.55-2.7-1.17-.51-2.74-.77-4.7-.77h-7.14v17.97Z"/>
      <path class="st1" d="M594.24,290.39v-42.95h15.86v2.33h-12.74v17.23h10.48v2.23h-10.48v18.87h12.91v2.28h-16.03Z"/>
    </g>
    <g>
      <path class="st1" d="M379.78,328.26l.72-21.15h1.62l5.12,19.09,5.21-19.09h1.68l.69,21.15h-1.41l-.6-17.73-4.94,17.73h-1.2l-4.88-17.7-.6,17.7h-1.41Z"/>
      <path class="st1" d="M406.74,328.26v-21.15h8.38v1.15h-6.73v8.49h5.54v1.1h-5.54v9.29h6.82v1.12h-8.47Z"/>
      <path class="st1" d="M426.32,328.26v-21.15h5.3c1.62,0,2.87.27,3.77.81.9.54,1.53,1.27,1.89,2.19.36.92.54,1.95.54,3.08v8.77c0,1.2-.18,2.28-.54,3.22-.36.95-.97,1.7-1.84,2.25-.87.55-2.09.82-3.67.82h-5.45ZM427.94,327.13h3.74c1.32,0,2.29-.24,2.93-.73.64-.49,1.06-1.14,1.26-1.95s.3-1.69.3-2.65v-8.51c0-1.03-.12-1.92-.36-2.68-.24-.76-.69-1.34-1.35-1.75-.66-.41-1.61-.61-2.84-.61h-3.68v18.88Z"/>
      <path class="st1" d="M449.61,328.26v-21.15h1.62v21.15h-1.62Z"/>
      <path class="st1" d="M462.24,328.26l5.09-21.15h1.89l5.12,21.15h-1.64l-1.26-5.85h-6.29l-1.29,5.85h-1.62ZM465.38,321.36h5.84l-2.93-12.53-2.9,12.53Z"/>
    </g>
    <g>
      <rect class="st1" x="223.19" y="255.9" width="6.13" height="4.34"/>
      <rect class="st1" x="242.86" y="255.9" width="6.13" height="4.34"/>
      <rect class="st1" x="262.54" y="255.9" width="6.13" height="4.34"/>
      <rect class="st1" x="282.21" y="255.9" width="6.13" height="4.34"/>
      <rect class="st1" x="301.89" y="255.9" width="6.13" height="4.34"/>
      <rect class="st1" x="321.56" y="255.9" width="6.13" height="4.34"/>
      <rect class="st1" x="341.24" y="255.9" width="6.13" height="4.34"/>
      <rect class="st1" x="223.19" y="330.83" width="6.13" height="4.34"/>
      <rect class="st1" x="242.86" y="330.83" width="6.13" height="4.34"/>
      <rect class="st1" x="262.54" y="330.83" width="6.13" height="4.34"/>
      <rect class="st1" x="282.21" y="330.83" width="6.13" height="4.34"/>
      <rect class="st1" x="301.89" y="330.83" width="6.13" height="4.34"/>
      <rect class="st1" x="321.56" y="330.83" width="6.13" height="4.34"/>
      <rect class="st1" x="341.24" y="330.83" width="6.13" height="4.34"/>
    </g>
  </g>
  <path class="st1" d="M361.67,346.76h-149.35v-99.83h149.35v99.83ZM214.32,344.76h145.35v-95.83h-145.35v95.83Z"/>
  <rect class="st1" x="378.09" y="344.3" width="234.98" height="2"/>
  <path class="st1" d="M286.81,319.69c-12.74,0-27.79-4.58-43.24-19.3l-.68-.65.61-.72c.37-.45,9.35-10.96,24.8-16.38,14.26-5,36.87-6.31,63.55,15.9l.83.69-.74.77c-.43.45-10.78,11.11-26.9,16.6-5.21,1.78-11.38,3.09-18.21,3.09ZM245.65,299.61c18.28,17.07,38.03,22.15,58.72,15.1,13.23-4.51,22.65-12.8,25.33-15.33-20.53-16.76-40.93-21.76-60.67-14.87-12.7,4.43-21.08,12.66-23.38,15.11Z"/>
  <path class="st1" d="M287.37,313.49c-10.78,0-19.55-8.77-19.55-19.55,0-4.53,1.58-8.95,4.46-12.43l1.54,1.27c-2.58,3.13-4.01,7.1-4.01,11.16,0,9.68,7.87,17.55,17.55,17.55s17.55-7.87,17.55-17.55c0-3.66-1.12-7.17-3.23-10.15l1.63-1.16c2.36,3.32,3.6,7.23,3.6,11.31,0,10.78-8.77,19.55-19.55,19.55Z"/>
  <circle class="st1" cx="287.22" cy="292.79" r="12.1"/>
  <path class="st1" d="M329.94,290.08c-17.93-15.8-37.88-20.62-59.29-14.33-16.04,4.71-26.93,14.23-27.04,14.33l-1.33-1.5c.45-.4,11.28-9.88,27.73-14.73,15.22-4.49,38.2-5.57,61.25,14.73l-1.32,1.5Z"/>
</svg>